<svg width="529" height="933" viewBox="0 0 529 933" fill="none" xmlns="http://www.w3.org/2000/svg">
<path d="M283.401 155.006C326.396 229.052 362.225 305.487 383.722 427.305" stroke="#E81928" stroke-opacity="0.1" stroke-width="3"/>
<path d="M152.029 537.18V565.843H163.972V527.625" stroke="#E81928" stroke-opacity="0.1" stroke-width="3"/>
<path d="M140.086 546.734L152.029 549.122" stroke="#E81928" stroke-opacity="0.1" stroke-width="3"/>
<path d="M82.7597 551.511C70.8168 563.454 45.02 595.939 37.3766 630.335C29.7331 664.73 30.2108 697.215 37.3766 733.044C54.0967 783.204 101.868 852.473 190.246 864.416" stroke="#E81928" stroke-opacity="0.1" stroke-width="3"/>
<path d="M77.9827 558.677C89.9256 569.028 111.423 589.729 118.589 611.226C124.678 629.495 142.474 682.884 147.252 690.049H173.526C168.749 670.145 152.984 626.513 147.252 611.226C145.659 604.857 147.252 584.952 152.029 565.843" stroke="#E81928" stroke-opacity="0.1" stroke-width="3"/>
<path d="M168.749 475.077C170.341 478.261 178.303 494.185 171.138 513.294C164.295 531.54 157.602 535.587 152.029 534.791L144.863 539.568C143.271 544.346 147.252 549.123 116.2 553.9C85.1486 558.677 64.1657 547.227 51.7084 520.46" stroke="#E81928" stroke-opacity="0.1" stroke-width="3"/>
<path d="M190.246 102.457C159.194 178.892 161.583 338.927 171.138 475.077" stroke="#E81928" stroke-opacity="0.1" stroke-width="3"/>
<path d="M386.11 427.305C387.703 378.737 381.333 261.059 343.116 159.783" stroke="#E81928" stroke-opacity="0.1" stroke-width="3"/>
<path d="M443.436 475.076C431.493 310.264 417.162 206.6 388.499 135.898C352.67 47.52 315.003 15.0798 281.012 18.8565C238.018 23.6338 221.298 30.7996 187.858 107.234" stroke="#E81928" stroke-opacity="0.1" stroke-width="3"/>
<path d="M99.4801 451.191C85.1486 451.191 75.5943 453.579 68.4285 465.522M58.8742 487.02L42.1541 482.242" stroke="#E81928" stroke-opacity="0.1" stroke-width="3"/>
<path d="M85.1487 518.071L82.7601 525.237" stroke="#E81928" stroke-opacity="0.1" stroke-width="3"/>
<path d="M221.298 754.541L292.956 713.935L230.852 766.484L252.35 833.364" stroke="#E81928" stroke-opacity="0.1" stroke-width="3"/>
<path d="M59.3258 484.631C57.4451 492.499 60.4543 510.203 87.5373 518.071" stroke="#E81928" stroke-opacity="0.1" stroke-width="3"/>
<path d="M135.309 436.859L106.646 458.356C125.754 467.91 125.754 489.408 113.812 506.128L142.475 522.848" stroke="#E81928" stroke-opacity="0.1" stroke-width="3"/>
<path d="M333.561 453.579C327.192 462.337 315.408 488.452 319.23 522.848" stroke="#E81928" stroke-opacity="0.1" stroke-width="3"/>
<path d="M142.475 11.691C94.703 26.0225 75.5944 57.0742 66.5067 100.224C51.4478 171.726 56.4855 240.995 87.537 403.419L98.5193 424.916M206.966 4.52524C245.183 -0.252406 295.344 -0.251902 333.562 37.9656C374.168 78.5714 398.053 128.732 414.773 195.612C431.493 262.493 443.436 307.876 452.991 494.185" stroke="#E81928" stroke-opacity="0.1" stroke-width="3"/>
<path d="M347.893 821.422C421.939 821.422 462.545 814.256 503.151 742.598C542.335 673.45 514.298 608.041 495.985 587.34M350.281 816.645C339.931 827.791 300.599 856.773 254.738 864.416" stroke="#E81928" stroke-opacity="0.1" stroke-width="3"/>
<path d="M116.2 16.4682C142.475 11.4219 147.252 8.89902 183.08 16.4682" stroke="#E81928" stroke-opacity="0.1" stroke-width="3"/>
<path d="M221.298 4.52515C202.189 1.34037 157.284 14.5572 130.532 92.9028C97.0914 190.835 92.3143 250.55 99.48 422.528" stroke="#E81928" stroke-opacity="0.1" stroke-width="3"/>
<path d="M130.532 92.9741C122.399 92.4014 103.916 95.0355 95.0441 110.153C86.1722 125.27 68.8265 122.613 63.6512 119.177" stroke="#E81928" stroke-opacity="0.1" stroke-width="3"/>
<path d="M152.029 11.691C120.807 11.691 86.5985 16.4682 61.2627 33.1883C51.604 39.5625 28.3837 62.3139 20.6567 83.3486C10.998 109.642 -8.18902 176.41 8.71376 305.487C14.348 333.374 22.9409 399.574 32.5997 432.082C34.9883 451.191 37.3768 458.357 43.6691 470.631C38.8398 487.364 38.3568 524.174 75.06 537.56C111.763 550.946 137.037 530.389 145.086 520.828C159.574 499.315 153.862 474.308 149.915 458.68C144.735 438.167 101.869 408.196 66.0399 436.859" stroke="#E81928" stroke-opacity="0.1" stroke-width="3"/>
<path d="M63.6512 114.4C75.6716 80.4503 111.8 20.022 159.195 39.8951" stroke="#E81928" stroke-opacity="0.1" stroke-width="3"/>
<path d="M85.1486 391.476C61.2628 393.865 49.3199 401.03 30.2112 420.139" stroke="#E81928" stroke-opacity="0.1" stroke-width="3"/>
<path d="M32.5996 434.471C40.5616 423.324 60.7849 401.508 87.5371 403.419M66.0398 436.859C68.4284 434.471 75.5942 440.681 75.5942 446.414C84.3523 445.618 97.0914 446.414 97.0914 451.191" stroke="#E81928" stroke-opacity="0.1" stroke-width="3"/>
<path d="M173.526 135.897C196.457 33.0044 242.795 6.91371 281.013 11.691C307.287 14.0796 321.618 23.6339 340.727 45.1312M97.0914 391.476C111.423 389.884 140.086 391.476 154.417 403.419" stroke="#E81928" stroke-opacity="0.1" stroke-width="3"/>
<path d="M178.304 116.789C173.526 133.509 154.499 213.523 154.418 417.751" stroke="#E81928" stroke-opacity="0.1" stroke-width="3"/>
<path d="M386.11 131.12C387.703 138.286 384.2 157.873 367.002 159.784C367.002 159.784 360.791 159.784 335.95 159.784C312.86 126.344 265.248 63.2845 240.407 78.5715" stroke="#E81928" stroke-opacity="0.1" stroke-width="3"/>
<path d="M386.11 417.75C364.613 298.321 324.007 178.892 238.018 78.5713" stroke="#E81928" stroke-opacity="0.1" stroke-width="3"/>
<path d="M192.635 116.789C208.559 138.286 241.84 181.281 247.572 181.281" stroke="#E81928" stroke-opacity="0.1" stroke-width="3"/>
<path d="M283.401 155.006C283.401 165.357 271.458 176.503 247.572 181.28" stroke="#E81928" stroke-opacity="0.1" stroke-width="3"/>
<path d="M245.184 178.892C272.254 224.275 327.829 344.66 333.561 453.579" stroke="#E81928" stroke-opacity="0.1" stroke-width="3"/>
<path d="M240.406 76.1827C237.222 86.5333 209.833 110.101 183.08 121.566" stroke="#E81928" stroke-opacity="0.1" stroke-width="3"/>
<path d="M333.562 453.579C339.819 443.037 356.517 425.487 382.8 427.434C397.662 427.434 432.55 441.545 453.2 497.988C456.329 503.664 463.056 524.705 464.934 553.9M409.996 826.199V878.748" stroke="#E81928" stroke-opacity="0.1" stroke-width="3"/>
<path d="M173.526 513.294C195.023 513.294 246.139 519.027 278.624 541.957C319.23 570.62 345.504 577.786 378.945 663.775C405.697 732.566 367.798 797.536 345.504 821.421" stroke="#E81928" stroke-opacity="0.1" stroke-width="3"/>
<path d="M163.972 537.18C197.412 534.791 218.909 532.402 271.458 558.677C297.442 571.669 384.929 629.051 369.39 737.821C362.224 787.982 335.95 838.142 254.738 862.028" stroke="#E81928" stroke-opacity="0.1" stroke-width="3"/>
<path d="M319.23 520.46C318.434 503.74 320.663 466.478 335.95 451.191" stroke="#E81928" stroke-opacity="0.1" stroke-width="3"/>
<path d="M321.618 377.145C324.803 396.253 329.262 444.025 321.618 482.243" stroke="#E81928" stroke-opacity="0.1" stroke-width="3"/>
<path d="M340.727 518.072C368.454 514.903 424.079 524.454 460.156 551.512C488.819 573.008 529.341 614.202 526.894 690.271C524.937 751.127 483.302 795.496 462.545 807.09C457.768 809.758 436.373 821.967 416.801 825.77V873.314C407.015 882.823 383.039 896.135 365.424 873.314V825.77L345.504 821.422" stroke="#E81928" stroke-opacity="0.1" stroke-width="3"/>
<path d="M99.4801 403.419C123.366 403.419 140.086 408.196 154.418 424.916" stroke="#E81928" stroke-opacity="0.1" stroke-width="3"/>
<path d="M154.418 401.031V472.688C156.01 475.077 163.972 477.465 173.526 477.465" stroke="#E81928" stroke-opacity="0.1" stroke-width="3"/>
<path d="M89.9257 570.62C58.8741 599.283 43.7463 630.335 37.3769 668.552C27.8227 725.878 47.7274 764.096 58.8741 776.038" stroke="#E81928" stroke-opacity="0.1" stroke-width="3"/>
<path d="M68.4285 592.117C97.5118 615.824 110.753 648.966 135.309 701.992V728.267C139.29 736.229 150.596 756.93 154.418 776.038H190.246" stroke="#E81928" stroke-opacity="0.1" stroke-width="3"/>
<path d="M135.309 701.992H183.081V709.158L135.309 723.49" stroke="#E81928" stroke-opacity="0.1" stroke-width="3"/>
<path d="M205.516 699.196L183.08 709.158C197.412 728.267 204.578 744.987 204.578 768.873M204.578 768.873H223.686C223.686 747.376 221.298 725.878 204.578 697.215M204.578 768.873L190.246 776.039" stroke="#E81928" stroke-opacity="0.1" stroke-width="3"/>
<path d="M187.858 854.862V821.422" stroke="#E81928" stroke-opacity="0.1" stroke-width="3"/>
<path d="M154.418 565.843L195.024 685.272L163.972 558.677" stroke="#E81928" stroke-opacity="0.1" stroke-width="3"/>
<path d="M283.401 155.006C278.624 144.655 259.515 113.445 230.852 90.5142" stroke="#E81928" stroke-opacity="0.1" stroke-width="3"/>
<path d="M364.613 826.198C372.575 826.995 395.665 827.632 424.328 823.81" stroke="#E81928" stroke-opacity="0.1" stroke-width="3"/>
<path d="M223.687 768.873L269.07 914.576C266.681 920.946 255.322 931.296 238.018 931.296C228.464 931.296 230.852 931.296 223.687 931.296C221.298 931.296 210.788 917.92 197.412 883.525C184.036 849.129 163.176 797.536 154.418 776.038M171.138 520.46C191.043 519.664 239.929 522.371 276.236 539.568" stroke="#E81928" stroke-opacity="0.1" stroke-width="3"/>
<path d="M190.246 776.039L240.407 926.519C244.387 928.908 254.738 929.386 264.292 921.742" stroke="#E81928" stroke-opacity="0.1" stroke-width="3"/>
<path d="M171.138 773.65L185.469 850.084" stroke="#E81928" stroke-opacity="0.1" stroke-width="3"/>
<path d="M195.024 878.748H223.687" stroke="#E81928" stroke-opacity="0.1" stroke-width="3"/>
<path d="M197.412 883.525H223.687" stroke="#E81928" stroke-opacity="0.1" stroke-width="3"/>
<path d="M440.224 718.713C480.112 645.008 431.915 602.013 402.83 589.729C393.276 585.748 367.957 580.175 343.116 589.729" stroke="#E81928" stroke-opacity="0.1" stroke-width="3"/>
<path d="M197.412 556.709C209.355 555.117 239.929 557.187 266.681 578.206" stroke="#E81928" stroke-opacity="0.1" stroke-width="3"/>
<path d="M333.562 639.889C358.244 672.533 383.722 761.707 307.287 838.142M101.869 587.34L80.3715 599.283" stroke="#E81928" stroke-opacity="0.1" stroke-width="3"/>
<path d="M77.9827 601.672L99.4799 580.175" stroke="#E81928" stroke-opacity="0.1" stroke-width="3"/>
<path d="M140.086 608.837L161.583 675.718V690.049" stroke="#E81928" stroke-opacity="0.1" stroke-width="3"/>
<path d="M350.282 518.071C340.727 517.275 312.064 520.46 273.847 539.568" stroke="#E81928" stroke-opacity="0.1" stroke-width="3"/>
<path d="M381.333 147.84C376.556 128.732 357.925 81.9153 321.618 47.5197" stroke="#E81928" stroke-opacity="0.1" stroke-width="3"/>
<path d="M378.945 764.096C384.518 765.688 395.665 766.484 407.608 756.93M371.779 642.278C388.499 637.5 402.83 644.666 402.83 668.551" stroke="#E81928" stroke-opacity="0.1" stroke-width="3"/>
</svg>
